<svg id="Layer_2" data-name="Layer 2" xmlns="http://www.w3.org/2000/svg" xmlns:xlink="http://www.w3.org/1999/xlink" viewBox="0 0 257.3617 253.2766"><defs><style>.cls-1{fill:url(#linear-gradient);}.cls-2{fill:url(#linear-gradient-2);}.cls-3{fill:url(#linear-gradient-3);}.cls-4{fill:url(#linear-gradient-4);}.cls-5{fill:url(#linear-gradient-5);}.cls-6{fill:url(#linear-gradient-6);}.cls-7{fill:url(#linear-gradient-7);}</style><linearGradient id="linear-gradient" x1="67.11724" y1="197.84557" x2="63.54384" y2="68.60773" gradientUnits="userSpaceOnUse"><stop offset="0" stop-color="#f78e2e"/><stop offset="0.60878" stop-color="#f26038"/><stop offset="0.94791" stop-color="#f04b3c"/></linearGradient><linearGradient id="linear-gradient-2" x1="195.13058" y1="208.55498" x2="191.54758" y2="78.97005" xlink:href="#linear-gradient"/><linearGradient id="linear-gradient-3" x1="130.38161" y1="192.04342" x2="127.27789" y2="79.79231" xlink:href="#linear-gradient"/><linearGradient id="linear-gradient-4" x1="129.28723" y1="211.93027" x2="173.28715" y2="211.93027" gradientUnits="userSpaceOnUse"><stop offset="0" stop-color="#dc2928"/><stop offset="0.47653" stop-color="#dd4228"/><stop offset="0.94791" stop-color="#dd5728"/></linearGradient><linearGradient id="linear-gradient-5" x1="83.71922" y1="37.39371" x2="129.28723" y2="37.39371" xlink:href="#linear-gradient-4"/><linearGradient id="linear-gradient-6" x1="173.10638" y1="132.25532" x2="256.85106" y2="132.25532" gradientUnits="userSpaceOnUse"><stop offset="0" stop-color="#f37228"/><stop offset="0.94791" stop-color="#f37329"/></linearGradient><linearGradient id="linear-gradient-7" x1="44.00266" y1="187.56565" x2="44.00266" y2="103.96416" gradientUnits="userSpaceOnUse"><stop offset="0" stop-color="#f04a3c"/><stop offset="0.4743" stop-color="#f47b29"/><stop offset="0.48771" stop-color="#f37429"/><stop offset="0.55369" stop-color="#f57e2a"/><stop offset="1" stop-color="#f78e2b"/></linearGradient></defs><polygon id="_Path1_" data-name="&lt;Path1&gt;" class="cls-1" points="85.787 0 129.287 20.681 46.723 67.404 46.723 173.872 88.005 195.319 88.005 241.277 0 196.085 0 45.191 85.787 0"/><polygon class="cls-2" points="175.66 11.234 175.66 62.809 211.915 82.213 211.915 176.681 129.287 230.298 173.617 253.277 257.362 204.766 257.362 56.17 175.66 11.234"/><polyline class="cls-3" points="129.287 20.681 173.287 201.746 129.287 230.298 83.719 46.468 129.287 20.681"/><polyline class="cls-4" points="129.287 230.298 173.287 201.504 171.172 193.563 129.287 229.568 129.287 230.298"/><polyline class="cls-5" points="129.287 20.681 83.719 46.468 85.613 54.107 129.287 20.681"/><polygon class="cls-6" points="248.34 61.106 177.872 12.426 254.468 56.34 256.851 203.745 173.106 252.085 251.404 201.362 248.34 61.106"/><polygon class="cls-7" points="0 45.191 0 196.085 88.005 241.277 6.979 191.319 0 45.191"/></svg>